<?xml version="1.0" encoding="UTF-8"?>
<svg id="Layer_2" data-name="Layer 2" xmlns="http://www.w3.org/2000/svg" viewBox="0 0 75.65 65.98">
  <defs>
    <style>
      .cls-1 {
        fill: none;
        stroke: #42210b;
        stroke-linecap: round;
        stroke-linejoin: round;
        stroke-width: 1.5px;
      }

      .cls-2 {
        fill: #42210b;
      }
    </style>
  </defs>
  <g id="artwork">
    <g>
      <path class="cls-1" d="M5.09,16.18C2.94,10.35,7.26-.59,19.54,9.33c.39.31.95.26,1.35-.04,6.94-5.22,21.68-7.64,31.04-3.79.35.14.74.02.95-.3,4.53-6.85,15.72-6.02,16.19,4.16.06,1.3.41,2.58,1.15,3.66,4.33,6.36,15.07,31.34-23.96,36.74C2.27,55.85-5.77,33.82,5.09,16.18Z"/>
      <path class="cls-2" d="M39.8,39.85c-.65.66-1.34,1.29-2.07,1.87-.04.03-.08.07-.12.1-.01.01-.14.11-.06.05.09-.07-.08.06-.1.07-.04.03-.08.06-.13.09-.19.14-.38.28-.57.41-.39.27-.78.53-1.18.78s-.59.82-.32,1.23.8.59,1.23.32c1.67-1.03,3.22-2.26,4.6-3.65.33-.34.36-.94,0-1.27s-.92-.36-1.27,0h0Z"/>
      <path class="cls-2" d="M39.84,41.28c1.74.68,3.53,1.22,5.36,1.62.46.1,1-.14,1.11-.63.1-.46-.14-1-.63-1.11-1.82-.4-3.61-.95-5.36-1.62-.44-.17-1.01.19-1.11.63-.12.52.16.92.63,1.11h0Z"/>
      <path class="cls-2" d="M56.95,29.28s.1-.08.14-.11c-.06.05-.05.04.04-.03.1-.07.2-.15.3-.22.2-.14.4-.28.61-.41.41-.26.84-.5,1.28-.72.11-.05.22-.11.33-.16.03-.01.33-.15.2-.09.22-.1.45-.18.68-.26.46-.16.93-.3,1.4-.41s.77-.66.63-1.11c-.15-.48-.62-.75-1.11-.63-2.12.51-4.08,1.51-5.77,2.87-.37.3-.33.97,0,1.27.39.36.88.32,1.27,0h0Z"/>
      <path class="cls-2" d="M22.89,32.02c-2.25-.66-4.6-1.03-6.95-1.09-.49-.01-.9.42-.9.9s.41.89.9.9c2.2.06,4.36.41,6.47,1.03.47.14.98-.17,1.11-.63s-.16-.97-.63-1.11h0Z"/>
      <path class="cls-2" d="M10.96,13.67c.02-.45.05-.9.11-1.34l-.05.4c.07-.48.16-.95.35-1.39l-.15.36c.09-.2.19-.38.32-.56l-.23.3c.1-.12.21-.24.33-.33l-.3.23c.11-.08.23-.15.36-.21l-.36.15c.13-.05.27-.09.41-.11l-.4.05c.19-.02.37-.02.56,0l-.4-.05c.24.04.47.11.7.2l-.36-.15c.15.07.3.14.43.24l-.3-.23c.08.06.14.13.2.2l-.23-.3s.06.09.09.14l-.15-.36c.02.05.04.1.05.15l-.05-.4s0,.07,0,.1l.05-.4s-.01.07-.03.11l.15-.36s-.03.06-.05.09l.23-.3c-.24.31-.58.56-.88.8l.3-.23c-.93.71-1.97,1.26-2.95,1.91-.33.22-.58.51-.69.9-.1.36-.05.84.15,1.16.42.65,1.35,1,2.05.54.78-.51,1.59-.96,2.36-1.49.48-.33.95-.68,1.39-1.07.23-.2.46-.42.62-.69.28-.47.36-1.03.2-1.56-.12-.4-.38-.79-.7-1.05-.37-.3-.71-.47-1.15-.65-.64-.25-1.32-.29-1.99-.18-.6.09-1.18.43-1.61.86s-.66.9-.88,1.45c-.39.96-.45,2.06-.49,3.09-.04.78.72,1.54,1.5,1.5.84-.04,1.46-.66,1.5-1.5h0Z"/>
      <path class="cls-2" d="M59.26,7.7c.14-.1.28-.2.43-.29.07-.04.15-.09.23-.12.04-.02.39-.18.14-.07s.05-.01.1-.03c.08-.03.16-.05.25-.08.18-.05.36-.08.55-.11l-.4.05c.31-.04.62-.04.93,0l-.4-.05c.15.02.31.06.46.1.06.02.13.06.19.07-.23-.1-.29-.13-.18-.08.03.02.07.03.1.05.11.06.22.13.32.2.23.15-.26-.24-.06-.05.05.04.09.09.14.13s.09.09.13.14.19.23.03.02-.02-.02.01.03c.04.06.08.13.11.2.03.06.12.27.02.02s-.02-.03,0,.03c.05.14.08.29.1.43l-.05-.4c.02.2.02.39,0,.59l.05-.4s-.02.1-.03.15l1.85-1.05c-1.71-.66-3.43-1.32-5.14-1.99-.34-.13-.85-.03-1.16.15s-.61.54-.69.9c-.2.86.26,1.54,1.05,1.85,1.71.66,3.43,1.32,5.14,1.99.33.13.87.04,1.16-.15.32-.2.61-.52.69-.9.2-.97.06-1.94-.43-2.8-.41-.72-1.07-1.38-1.82-1.73-1.73-.81-3.79-.52-5.32.6-.32.24-.58.49-.69.9-.1.36-.05.84.15,1.16.4.62,1.38,1.04,2.05.54h0Z"/>
      <path class="cls-2" d="M40.55,38.59c-.07-.03-.2-.13-.26-.14.02,0,.21.19.09.07-.04-.03-.07-.07-.11-.1-.03-.03-.07-.09-.1-.11.01,0,.17.23.06.08-.06-.09-.12-.17-.17-.26-.1-.17-.19-.35-.27-.53-.02-.05-.04-.09-.06-.14.01.03.08.25.04.07v.39c-.06.11-.13.22-.19.33.03-.03.06-.06.1-.09-.13.1-.16.12-.09.07.09-.06.17-.11.26-.16.04-.02.08-.04.12-.06.2-.11-.2.07-.05.02.1-.03.19-.07.29-.1.05-.01.11-.03.16-.04.04,0,.28-.06.08-.02s0,0,.05,0c.04,0,.09,0,.13,0s.09,0,.13,0c.04,0,.25.04.05,0s.12.03.18.04c.04.01.22.08.03,0-.09-.02-.16-.07-.22-.14-.26-.31-.32-.6-.18-.87l.03-.06s-.05.08-.07.12c-.02.04-.05.07-.07.1-.12.19.14-.17.04-.05-.03.04-.07.08-.1.12-.06.06-.11.12-.18.18-.04.04-.08.07-.12.1-.19.16.12-.08.03-.02-.16.11-.33.22-.51.31-.04.02-.08.03-.11.05.25-.14.17-.07.09-.04-.12.04-.24.08-.36.12-.08.02-.16.04-.25.05-.22.05.24-.02.08,0-.05,0-.1.01-.16.01-.09,0-.19,0-.28,0-.05,0-.1,0-.16,0h-.06c-.12-.02-.08-.01.12.01-.06-.03-.15-.04-.22-.06-.2-.06.2.11.08.03-.04-.02-.08-.05-.13-.07-.17-.09.1.08.09.08-.03,0-.07-.07-.1-.09-.1-.08.15.25.07.08l.07.18c-.03-.11-.02-.06.01.15,0-.1.05-.11-.02.14-.08.16-.09.2-.05.12.04-.07.02-.04-.08.1.03,0,.09-.09.12-.12.18-.16-.11.07-.01,0,.11-.07.21-.14.32-.2.04-.02.08-.04.12-.06.04-.02.08-.04.13-.06l-.14.06c.06.01.3-.1.36-.12.11-.03.28-.03.37-.08-.02.01-.28.02-.09.02.07,0,.14,0,.21-.01.14,0,.28,0,.42.02.59.06,1.15-.56,1.12-1.12-.03-.66-.5-1.06-1.12-1.12-.76-.08-1.51.09-2.2.4s-1.46.85-1.65,1.62c-.21.87.32,1.73,1.11,2.09.72.33,1.48.34,2.25.2.59-.11,1.19-.36,1.67-.72.28-.21.55-.42.78-.69.27-.32.57-.7.66-1.12.16-.72-.21-1.39-.88-1.67-.36-.15-.74-.22-1.13-.23-.73-.03-1.49.17-2.12.54-.46.27-.91.65-1.05,1.19s.1,1.06.34,1.55c.31.66.79,1.34,1.48,1.64.29.13.55.2.87.11.26-.07.54-.27.67-.52.26-.49.17-1.29-.4-1.54h0Z"/>
      <g>
        <path class="cls-2" d="M17.32,58.06c.11.41.14.76.08,1.07-.05.23-.14.45-.29.66l-.36.52-.44.32c-.31.22-.59.35-.85.39-.26.03-.46.04-.61,0-.19-.04-.37-.14-.54-.29-.12.07-.24.09-.37.06-.14-.03-.3-.12-.47-.27.02-.08.04-.16.06-.26.02-.09.04-.2.06-.31.01-.06.02-.12.02-.18,0-.06.01-.13.02-.22s.03-.21.05-.36c.02-.15.05-.35.1-.59.04-.25.07-.45.07-.6s0-.25-.01-.29c.01-.28.03-.55.06-.83.02-.28.04-.54.06-.79.02-.25.03-.47.04-.66s0-.34,0-.44c.04-.18.11-.32.22-.43.11-.11.24-.15.39-.12.08.02.15.04.22.08s.12.1.17.18c.04.08.08.19.1.33.02.14.02.31,0,.52-.02.2-.03.34-.03.42,0,.08,0,.16-.01.24,0,.08-.01.19-.03.34s-.03.38-.06.71c.16-.05.29-.09.41-.12.12-.03.22-.05.32-.06.1-.01.2-.01.3,0,.1.01.22.03.35.06.15.03.28.08.39.15.11.07.21.15.28.24.08.09.14.18.19.28.05.1.09.19.12.28ZM16.22,59.28c.08-.21.13-.35.15-.42,0-.04,0-.1,0-.18s-.03-.16-.06-.24c-.03-.08-.07-.15-.12-.22-.05-.07-.12-.11-.21-.13-.13-.03-.3,0-.49.06-.19.07-.39.14-.58.2l-.18,1.26c.02.21.1.33.25.36.08.02.18.01.3-.01.12-.03.24-.07.36-.13.12-.06.24-.14.35-.23.11-.09.19-.2.24-.32Z"/>
        <path class="cls-2" d="M22.81,61.91c-.29.22-.61.39-.95.52-.34.13-.68.18-1,.13-.29-.04-.66-.14-1.11-.3-.14-.12-.28-.27-.42-.44-.14-.17-.26-.35-.36-.55-.1-.2-.18-.41-.23-.63-.05-.22-.06-.44-.03-.67,0-.06.02-.15.05-.25.02-.11.05-.21.08-.32.03-.11.06-.24.1-.39.19-.23.4-.46.61-.68.21-.22.5-.41.85-.55.53-.04.91-.04,1.14,0,.12.02.22.04.31.06s.17.06.24.11c.08.05.15.11.23.2.07.08.16.19.25.32.11.15.2.26.26.32.07.06.1.11.09.15-.1.73-.4,1.19-.89,1.39-.21.04-.48.08-.81.12-.33.04-.77.05-1.33.05.07.32.18.56.34.74.16.18.36.28.59.31.34.05.8-.09,1.37-.42.09-.06.19-.08.31-.06.13.02.23.08.32.19s.12.24.1.38c-.01.1-.06.2-.13.3ZM21.83,59.17c-.12-.27-.28-.42-.48-.45-.09-.01-.18-.01-.29,0-.11,0-.22.03-.33.06-.11.03-.22.07-.32.12-.1.05-.18.12-.25.2l-.17.34c.27.02.51.03.72.04s.39.02.54,0c.16,0,.28-.04.38-.08s.16-.12.2-.23Z"/>
        <path class="cls-2" d="M28.98,61.56c.14.11.2.23.18.37,0,.07-.03.14-.08.22-.05.07-.1.14-.17.19-.07.05-.14.1-.22.13-.08.03-.15.05-.22.04-.06-.03-.13-.08-.22-.15-.08-.07-.16-.14-.25-.23-.08-.08-.15-.18-.22-.28s-.12-.2-.15-.3l-.1.2c-.18.27-.44.52-.79.75-.4.04-.64.05-.7.05-.15-.01-.33-.05-.54-.12l-.62-.52c-.26-.3-.37-.68-.33-1.15.01-.17.06-.35.13-.55.07-.2.16-.4.28-.59.12-.2.26-.39.42-.58.16-.19.34-.35.55-.49.24-.07.47-.12.69-.16.22-.04.39-.06.5-.07.17-.15.35-.22.56-.2.12.01.22.08.3.2.08.12.15.28.2.46.05.18.09.38.11.59s.03.42.03.61l.1.65c.03.2.09.38.19.53.09.15.22.29.37.42ZM27.28,60.07s-.05-.27-.11-.77c-.04,0-.1,0-.18-.02s-.18,0-.29.04-.23.1-.37.2c-.13.1-.26.25-.4.45-.19.3-.31.6-.33.91.11.27.3.5.58.68.09-.02.17-.04.23-.06.06-.03.12-.07.17-.12.05-.05.1-.12.16-.2.05-.08.11-.18.18-.3.12-.17.21-.33.26-.46.06-.13.09-.25.1-.35Z"/>
        <path class="cls-2" d="M33.77,59.09c.12.08.18.24.17.46,0,.17-.06.31-.15.42-.09.12-.22.17-.37.17-.1,0-.19-.03-.29-.09-.1-.06-.2-.09-.32-.09-.1,0-.19.01-.28.04-.09.03-.2.11-.33.22l-.37.35c0,.06,0,.11,0,.17,0,.06,0,.12,0,.18,0,.1,0,.2-.02.3,0,.1-.02.22-.03.34l.07,1.09c-.04.37-.23.54-.58.53-.18,0-.32-.07-.4-.19-.08-.12-.14-.28-.16-.49-.02-.21-.03-.45-.01-.73.01-.28.02-.59.03-.92,0-.5,0-.76,0-.76h0c-.03-.11-.05-.22-.06-.31-.01-.09-.02-.17-.01-.25,0-.14.06-.26.17-.35s.26-.13.46-.12c.13,0,.28.11.44.32.19-.14.34-.24.44-.31.1-.07.19-.12.26-.15.07-.03.14-.04.2-.04.06,0,.15,0,.25,0,.09,0,.17,0,.25.02.08.02.16.04.24.06l.42.12Z"/>
        <path class="cls-2" d="M39.39,59.62c0,.18-.01.3-.02.37,0,.07-.03.15-.06.23-.04.08-.09.21-.17.37s-.19.42-.33.77c-.06.38-.21.75-.47,1.12-.12.39-.26.67-.42.84-.02.07-.08.19-.16.34-.09.15-.18.32-.28.49-.1.17-.19.34-.28.51-.09.17-.15.29-.19.38-.02.04-.05.11-.11.21-.06.1-.12.2-.19.31-.08.1-.16.2-.26.29-.1.09-.2.13-.29.13-.14,0-.28-.04-.4-.13-.13-.09-.19-.2-.19-.33,0-.06.03-.15.08-.25.06-.1.12-.21.2-.33.08-.12.16-.24.25-.36.09-.12.16-.24.22-.34.02-.06.07-.16.13-.29.06-.13.13-.26.21-.41s.14-.28.21-.41c.07-.13.11-.24.13-.31-.02-.02-.07-.06-.13-.12-.07-.07-.14-.14-.21-.21-.08-.07-.16-.15-.24-.22s-.15-.12-.22-.15c-.09-.13-.17-.23-.23-.3s-.12-.13-.18-.18c-.05-.05-.11-.09-.16-.14-.06-.05-.12-.11-.19-.2-.07-.09-.15-.2-.26-.35-.1-.14-.22-.33-.36-.57,0-.02-.01-.06-.01-.11,0-.16.05-.3.17-.43.11-.13.24-.2.36-.2.09,0,.19.04.3.12.11.08.24.23.39.44.15.24.28.41.36.52s.16.2.22.27c.06.07.13.13.19.19.07.06.17.16.3.29.1.05.23.16.39.34l.42-1.17c.09-.21.17-.42.26-.65s.15-.43.18-.63c.17-.12.35-.19.53-.19.3,0,.47.14.52.43Z"/>
        <path class="cls-2" d="M42.28,55.04c.01.07.02.14.03.2,0,.06.01.13.02.19,0,.09,0,.17,0,.26s0,.16-.02.22l-.06.75c0,.24-.04.42-.11.55-.06.12-.18.19-.35.2-.1,0-.19-.02-.25-.08s-.11-.15-.15-.28c-.04-.12-.08-.29-.11-.48-.04-.19-.09-.42-.15-.68-.03-.13-.05-.24-.06-.34-.01-.1-.02-.2-.02-.28-.01-.2.03-.34.14-.43.1-.08.24-.13.42-.14.35-.02.58.09.68.34Z"/>
        <path class="cls-2" d="M48.12,61.04c0,.25-.05.48-.17.7-.12.22-.23.44-.36.66-.08.08-.2.16-.35.23-.16.07-.31.13-.47.18-.16.05-.29.09-.4.12-.11.03-.16.04-.15.04-.08,0-.18,0-.31,0-.13-.01-.25-.03-.37-.04s-.22-.03-.3-.05c-.08-.02-.11-.03-.11-.03-.07,0-.17-.02-.28-.05-.12-.03-.23-.07-.33-.12-.11-.05-.2-.1-.28-.16-.08-.06-.13-.12-.14-.18,0-.06,0-.13.03-.2.02-.07.06-.14.11-.21.05-.07.1-.12.16-.16.06-.04.11-.07.18-.08l.86.22c.16.03.31.05.46.05.15,0,.3,0,.44-.02.14-.02.25-.05.36-.12.1-.06.18-.13.22-.21l.14-.38c-.03-.14-.1-.25-.21-.31s-.24-.12-.39-.16c-.15-.04-.32-.07-.49-.1s-.33-.08-.49-.14l-.55-.26c-.19-.2-.31-.52-.37-.96.02-.28.11-.52.28-.71,0,0,.05-.05.14-.13.09-.08.22-.19.41-.34.03,0,.13-.02.3-.06s.4-.08.7-.15c.13-.01.48.04,1.02.18.11.09.18.23.2.41.02.14,0,.27-.06.38-.06.11-.15.17-.28.18-.13.02-.29,0-.46-.05-.17-.05-.33-.07-.47-.05-.2.02-.38.06-.54.11-.16.05-.23.14-.22.27.02.18.11.29.28.31,1.25.13,2,.61,2.25,1.41Z"/>
        <path class="cls-2" d="M58.78,59.19c-.07.35-.26.65-.55.92s-.64.44-1.05.54c-.05.01-.15.03-.27.04-.13.01-.27.02-.44,0-.16,0-.33-.04-.51-.08-.18-.04-.35-.12-.52-.22-.17-.1-.31-.24-.45-.42-.13-.17-.23-.39-.29-.66-.09-.35-.12-.68-.08-.99.04-.31.14-.65.3-1l.26-.57c.36-.4.82-.67,1.36-.79.29-.07.54-.07.74,0,.2.07.33.2.38.4.04.16.01.29-.08.42s-.22.21-.4.25c0,0-.04,0-.09,0h-.18c-.07,0-.13,0-.2,0-.07,0-.12,0-.16.02-.18.04-.36.18-.55.43-.19.24-.3.58-.33,1.02-.01.18,0,.33.02.44.05.22.15.38.3.47.15.1.31.16.47.19.16.03.31.04.44.03.13-.01.2-.02.2-.02.11-.03.21-.08.3-.17.09-.09.18-.18.25-.28.07-.1.13-.18.17-.25s.06-.11.05-.1c.06-.09.14-.15.24-.17.12-.03.25,0,.39.11.14.1.22.22.25.35,0,.04.01.07.01.1Z"/>
        <path class="cls-2" d="M64.29,57.22c.17.05.27.14.31.27.02.07.03.15,0,.23s-.04.17-.09.24c-.04.08-.09.14-.15.2-.06.06-.12.1-.19.12-.07,0-.15-.02-.25-.05-.1-.03-.21-.07-.31-.12-.11-.04-.21-.1-.31-.17-.1-.07-.19-.14-.25-.22l-.02.22c-.06.32-.2.65-.44,1-.36.19-.57.29-.63.31-.15.05-.33.08-.55.1l-.77-.25c-.36-.17-.61-.48-.75-.93-.05-.16-.08-.34-.09-.55-.01-.21,0-.43.03-.66.03-.23.09-.46.16-.69.08-.23.18-.46.32-.67.19-.15.38-.29.57-.42.19-.12.33-.21.43-.26.09-.21.24-.34.44-.4.11-.04.23-.01.36.07.12.08.24.2.36.34.12.15.23.32.33.5.1.19.19.37.26.55l.34.56c.11.18.23.32.38.42.15.1.31.19.5.24ZM62.14,56.5s-.15-.22-.4-.67c-.04.01-.1.03-.17.05s-.16.07-.25.15c-.09.08-.18.18-.26.32-.08.14-.15.33-.19.57-.07.35-.05.67.04.97.21.21.48.34.8.4.08-.05.14-.1.19-.15.05-.05.09-.11.11-.17.03-.07.05-.15.07-.24.02-.09.03-.21.05-.35.04-.21.07-.38.06-.53s-.02-.27-.04-.36Z"/>
        <path class="cls-2" d="M67.38,53.51l-.58.3s-.06.03-.1.05c-.03.02-.07.05-.12.07s-.1.06-.15.09l.49.98c.05.09.1.21.17.35.07.14.16.29.26.48.02.06.04.12.05.19.02.06.04.13.08.2.04.11.1.23.16.36.06.13.13.27.21.42-.04.28-.19.46-.44.56-.22.09-.42.04-.6-.14-.02-.06-.05-.13-.08-.22-.03-.09-.07-.18-.11-.29-.04-.1-.09-.22-.14-.34-.05-.12-.11-.26-.17-.41l-.02-.06c-.05-.12-.09-.21-.12-.26-.04-.05-.08-.13-.13-.21-.05-.09-.12-.21-.21-.37s-.22-.41-.38-.75l-.38.24s-.04.02-.06.02c-.02,0-.04,0-.05.01-.04.01-.07.03-.1.04-.03.02-.05.03-.08.04-.03.02-.05.03-.07.04-.26.04-.45-.09-.56-.37-.04-.11-.07-.2-.07-.27,0-.07.03-.13.09-.19.06-.06.16-.13.3-.2.14-.08.32-.18.54-.31-.06-.12-.13-.27-.22-.43-.08-.16-.17-.33-.24-.53-.12-.3-.14-.74-.07-1.33.06-.07.12-.13.17-.2.06-.06.13-.13.21-.21.09-.07.19-.15.32-.24.12-.09.28-.19.48-.3l.04-.02c.13-.05.25-.04.35.03.11.07.19.17.24.29.06.14.07.26.03.36-.04.1-.09.18-.17.26-.08.08-.17.16-.28.23-.11.07-.2.15-.28.23-.08.07-.11.14-.09.23.01.09.03.18.06.26,0,.02.03.07.08.18.05.1.09.2.12.28,0,.02.02.04.02.06,0,.02,0,.04.02.05.01.03.03.07.05.11s.05.11.09.19l.49-.27s.1-.05.15-.07c.05-.02.09-.04.13-.05.19-.07.33-.09.45-.06.11.03.2.13.27.29.1.26.08.46-.06.59Z"/>
        <path class="cls-2" d="M73.97,53.99c-.12.34-.28.67-.49.97-.21.3-.46.53-.75.67-.27.13-.63.25-1.09.37-.19-.02-.39-.07-.6-.13-.21-.06-.41-.15-.6-.25-.19-.1-.38-.24-.54-.39-.16-.15-.3-.33-.39-.53-.03-.06-.06-.14-.1-.24-.04-.1-.08-.2-.12-.3-.04-.1-.08-.23-.14-.38.03-.3.07-.6.12-.91.05-.3.18-.62.39-.93.42-.33.73-.55.94-.65.11-.05.2-.09.29-.12.08-.03.17-.04.26-.05.09,0,.19,0,.3.03.11.03.24.07.39.12.17.07.31.1.4.11.09,0,.14.03.16.07.32.66.34,1.21.04,1.65-.15.15-.35.34-.6.55-.25.22-.61.48-1.07.79.23.22.47.36.7.42.23.06.45.03.66-.07.31-.15.61-.52.89-1.12.04-.1.11-.18.22-.23.11-.06.24-.06.37-.02.13.04.23.13.29.26.04.09.07.2.06.32ZM71.62,52.29c-.25-.16-.46-.19-.65-.1-.08.04-.16.09-.24.16-.08.07-.16.14-.24.23-.08.09-.14.18-.2.28-.05.1-.09.2-.1.3l.05.38c.23-.14.44-.26.62-.37.18-.11.33-.21.45-.3.12-.1.21-.19.27-.28.05-.09.07-.19.04-.3Z"/>
      </g>
    </g>
  </g>
</svg>